<svg xmlns="http://www.w3.org/2000/svg" width="28.587" height="47.117" viewBox="0 0 28.587 47.117">
  <path id="icon-give-spark" d="M11374.884-8462.8l2.645.84-2.37,2Zm1.464-3.665,2.645.838-2.37,2Zm4.911-15.866,2.21.418,4.895,5.988-1.6,2.233-4.205-5.314-3.036,10.543-2.893.769Zm6.77,9.94,1.609-2.287,1.144,2.9Zm-12.255-2.771,2.578-6.2-10.8,3.01-2.433-1.789,14.439-3.5,1.191,1.138-3.13,8.076Zm-13.579-3.733,2.673-.915-.215,2.8Zm8.705-6.315,6.352-.746-6.952-8.146.577-2.993,9.242,11.286-.522,1.578-8.568,1.021Zm5.279-6.949,1.261-1.761,3.771,5.043,3.7-9.088,2.922-.74-5.543,12.518-1.632.194Zm-7.812-8.235,1.718,2.258-2.684.709Zm18.084-1.081,2.4-1.961.226,2.845Zm1.526-3.642,2.407-1.959.224,2.842Z" transform="translate(-11362.194 8507.078)"/>
</svg>
