<svg xmlns="http://www.w3.org/2000/svg" xmlns:xlink="http://www.w3.org/1999/xlink" viewBox="0 0 297.999 63">
  <defs>
    <radialGradient id="radial-gradient" cx="0.238" cy="0.738" r="0.565" gradientUnits="objectBoundingBox">
      <stop offset="0" stop-color="#f8971f"/>
      <stop offset="1" stop-color="#ffd600"/>
    </radialGradient>
  </defs>
  <g id="what-starts-here-campaign-horiz" transform="translate(-278.364 -9080.565)">
    <g id="type">
      <path id="what" d="M9.954.1,12.881-12h.052L15.573.1h4.364L24.954-19.24H20.172L18.63-11.531A37.316,37.316,0,0,0,17.9-7.637h-.052a33.8,33.8,0,0,0-.862-3.946L15.259-19.24h-4.73l-1.594,7.63a38.14,38.14,0,0,0-.784,3.972H8.1a34.9,34.9,0,0,0-.836-4l-1.646-7.6H.364L5.512.1ZM27.123.1h5.226V-7.716h6.428V.1H44V-19.24H38.777v7.186H32.349V-19.24H27.123Zm23.7,0,1.254-3.606h6.089L59.343.1h5.279L57.775-19.318h-4.86L46.068.1Zm4.338-12.674h.052l1.777,5.357H53.306ZM73.767.1v-15h5.566V-19.24H62.975V-14.9h5.566V.1Z" transform="translate(278 9133.735)" fill="#bf5700"/>
      <path id="starts" d="M9.4.465c5.958,0,8.127-3.057,8.127-6.141,0-4.338-4.233-5.3-7.4-6.062-1.908-.47-3.423-.941-3.423-2.221,0-.915.758-1.411,2.247-1.411a6.6,6.6,0,0,1,4.625,2.43l3.5-2.874a9.942,9.942,0,0,0-8.1-3.789c-4.39,0-7.369,2.169-7.369,6.115,0,4.39,4.207,5.2,7.369,6.01,1.908.47,3.449.941,3.449,2.169,0,1.2-1.2,1.672-2.8,1.672a5.984,5.984,0,0,1-5.07-2.927L.7-4.16A9.533,9.533,0,0,0,9.4.465ZM29.238.1v-15H34.8v-4.338H18.445V-14.9h5.566V.1Zm8.676,0,1.254-3.606h6.089L46.432.1h5.279L44.864-19.317H40L33.157.1Zm4.338-12.674H42.3L44.08-7.218H40.4ZM58.9.1V-6.617h1.437L64.071.1h5.54l-4.1-7.4c2.535-.862,3.815-2.613,3.815-5.644,0-4.651-3.031-6.3-8-6.3H53.775V.1Zm0-15.1h2.247c2.143,0,3.084.575,3.084,2.2s-.941,2.221-3.084,2.221H58.9ZM81.474.1v-15H87.04v-4.338H70.682V-14.9h5.566V.1ZM96.369.465c5.958,0,8.127-3.057,8.127-6.141,0-4.338-4.233-5.3-7.4-6.062-1.908-.47-3.423-.941-3.423-2.221,0-.915.758-1.411,2.247-1.411a6.6,6.6,0,0,1,4.625,2.43l3.5-2.874a9.942,9.942,0,0,0-8.1-3.789c-4.39,0-7.369,2.169-7.369,6.115,0,4.39,4.207,5.2,7.369,6.01,1.908.47,3.449.941,3.449,2.169,0,1.2-1.2,1.672-2.8,1.672a5.984,5.984,0,0,1-5.069-2.927l-3.867,2.4A9.533,9.533,0,0,0,96.369.465Z" transform="translate(364.437 9133.734)" fill="#bf5700"/>
      <path id="here" d="M1.794.1H7.02V-7.716h6.428V.1h5.226V-19.24H13.449v7.186H7.02V-19.24H1.794ZM36.523.1V-4.11H27.507V-7.69h6.115v-4.077H27.507V-14.9h8.571V-19.24h-13.8V.1Zm7.735,0V-6.619h1.437L49.432.1h5.54l-4.1-7.4c2.535-.862,3.815-2.613,3.815-5.644,0-4.651-3.031-6.3-8-6.3H39.136V.1Zm0-15.1H46.5c2.143,0,3.084.575,3.084,2.2S48.648-10.59,46.5-10.59H44.258ZM72.166.1V-4.11H63.151V-7.69h6.115v-4.077H63.151V-14.9h8.571V-19.24h-13.8V.1Z" transform="translate(474.998 9133.735)" fill="#bf5700"/>
    </g>
    <path id="spark" d="M25.745,60.1l3.58-1.133L28.228,63Zm-1.192-5.147,3.58-1.133-1.1,4.028ZM20.652,34l1.639-1.5L32.05,35.6v2.9l-8.1-2.455,3.1,12.755-2.621,3.12Zm22.787,3.224,2.383-2.9L47.1,38.3Zm-20.7-5.353-.673-2.119,8.587-7.908L32.367,23.9l-6.376,5.849,14.033,3.285,1.723,3.692ZM5.913,27.734V24.048l8.792,2.405-4.975-13.8,2.562-3.128,6.449,19.491-2.753,1.3ZM19.443,28.8,16.52,17.594l2.593-.684,2.06,8.753,9.462-11.827h4.077L21.649,29.089ZM0,25.175l3.5-1.527L3.534,27.4ZM32.757,10.083l4.176.085-2.211,3.11ZM9.1,5.124l2.534,2.851-3.559,1.2ZM7.814,0l2.535,2.851L6.79,4.046Z" transform="translate(529.263 9080.565)" fill="url(#radial-gradient)"/>
  </g>
</svg>
